<svg width="270" height="38" viewBox="0 0 270 38" fill="none" xmlns="http://www.w3.org/2000/svg">
<path d="M159.673 1.84808L196.415 30.4457V1.84808H201.135V36.1472H196.415L159.673 7.53046V1.84808ZM112.785 1.84808H117.396V31.9556H129.542V36.1472H112.785V1.84808ZM132.642 1.84808H136.815V31.9556H149.399V36.1472H132.642V1.84808ZM156.577 1.84808V36.1472H152.495V1.84808H156.577ZM204.241 16.9138H234.987V21.0815H204.241V16.9138ZM204.241 1.84808H239.011V6.13487H204.241V1.84808ZM204.241 31.6841H239.011V36.1472H204.241V31.6841ZM109.689 6.37303V1.84808H107.474L81.8012 36.1472H87.4073L109.694 6.37303H109.689ZM91.5369 27.3592H109.689V23.5345H94.5138M264.394 36.1519H270L244.322 1.84808H242.107V6.37303L264.394 36.1472V36.1519ZM257.283 23.5345H242.107V27.3592H260.259M37.0187 38V0H33.9274V38H37.0187ZM30.4885 3.01504H0V6.37303H30.4885V3.01504ZM30.4885 10.1692H15.2466V13.5272H30.4885V10.1692ZM30.4885 17.3234H0V20.6814H30.4885V17.3234ZM30.4885 24.4776H15.2466V27.8355H30.4885V24.4776ZM30.4885 31.6317H0V34.9897H30.4885V31.6317ZM40.4624 6.37303H70.9509V3.01504H40.4624V6.37303ZM40.4624 13.5272H70.9509V10.1692H40.4624V13.5272ZM40.4624 20.6814H70.9509V17.3234H40.4624V20.6814ZM40.4624 27.8355H70.9509V24.4776H40.4624V27.8355ZM40.4624 34.9897H70.9509V31.6317H40.4624V34.9897Z" fill="#73BC43"/>
</svg>
