<svg width="232" height="105" viewBox="0 0 232 105" fill="none" xmlns="http://www.w3.org/2000/svg">
<path d="M119.805 60.7644L112.866 60.7544C112.866 60.7544 112.323 60.7772 112.299 60.1294L112.303 42.0446C112.303 41.1696 112.249 40.8145 110.965 40.8145H108.094C106.81 40.8145 106.753 41.1696 106.753 42.0446V63.7134C106.753 65.4933 107.239 65.911 108.911 65.911H119.805C120.685 65.911 121.035 65.8584 121.035 64.6595V62.0102C121.035 60.8098 120.685 60.7644 119.805 60.7644Z" fill="#231F20"/>
<path d="M142.054 52.2767C143.222 51.5821 144.969 49.6601 144.969 47.1458C144.969 46.9994 144.969 46.8503 144.956 46.704C144.756 43.1455 142.162 40.8145 138.122 40.8145H130.136C128.852 40.8145 128.798 41.171 128.798 42.0532V64.6666C128.798 65.5502 128.852 65.911 130.136 65.911H138.459C144.446 65.911 146.954 62.4165 146.954 58.5157C146.954 55.4488 145.032 52.8662 142.054 52.2767ZM134.352 45.694H136.888C138.493 45.694 139.423 46.4909 139.423 48.0066C139.423 49.528 138.46 50.315 136.888 50.315H134.352V45.694ZM137.847 60.9604H134.352V55.9275H137.847C139.49 55.9275 141.203 56.5795 141.203 58.4489C141.203 60.3141 139.693 60.9604 137.847 60.9604Z" fill="#231F20"/>
<path d="M161.3 45.9806H168.089C168.953 45.9806 169.319 45.9266 169.319 44.7291V42.0542C169.319 40.8567 168.953 40.8113 168.089 40.8113L156.438 40.8027C155.561 40.8027 155.208 40.8567 155.208 42.1395V64.5696C155.208 65.8566 155.561 65.9078 156.438 65.9078H168.089C168.953 65.9078 169.319 65.8552 169.319 64.6563V62.007C169.319 60.8081 168.953 60.7626 168.089 60.7626L161.3 60.7527C161.3 60.7527 160.787 60.774 160.753 60.1518V56.1175C160.775 55.6615 161.049 55.5635 161.199 55.5422H166.592C167.46 55.5422 167.822 55.4797 167.822 54.285V52.1173C167.822 50.9226 167.46 50.8729 166.592 50.8729L161.27 50.8771C161.27 50.8771 160.787 50.8984 160.753 50.2791V46.5786C160.787 45.9649 161.3 45.9806 161.3 45.9806Z" fill="#231F20"/>
<path d="M56.3234 65.9016C57.6161 65.9016 57.6658 65.5493 57.6658 64.6742L57.6615 57.4977C57.6615 57.4977 57.6587 57.2221 57.8178 57.1852C58.0152 57.1326 58.1573 57.3684 58.1573 57.3684L65.0043 65.3106C65.2969 65.6416 65.5043 65.9115 66.1449 65.9115C66.1535 65.9129 71.9805 65.9115 71.9805 65.9115C72.6765 65.9115 72.8484 65.5507 72.2646 64.7424L62.2584 53.7873C62.2584 53.7873 62.0765 53.587 62.0765 53.3313C62.0765 53.0671 62.2669 52.8852 62.2669 52.8852L71.8328 41.7625C72.2348 41.1786 72.0686 40.8164 71.3725 40.8164H66.1037C65.4659 40.8164 65.26 41.0835 64.9659 41.4145L58.0067 49.3169C58.0067 49.3169 57.9172 49.4774 57.7709 49.4319C57.6629 49.3993 57.6629 49.2189 57.6629 49.2189L57.6672 42.0523C57.6672 41.173 57.6175 40.8164 56.3248 40.8164H53.4397C52.1442 40.8164 52.0859 41.173 52.0859 42.0523V64.6757C52.0859 65.5521 52.1442 65.903 53.4397 65.903H56.3234V65.9016Z" fill="#231F20"/>
<path d="M29.6654 66.0331C29.1426 65.7022 29.198 64.6197 29.0361 64.0444C25.0927 50.2539 4.27905 45.5079 7.50223 29.8465C7.87157 28.1035 8.18124 26.2086 9.39154 24.5238C9.74809 24.028 11.0138 23.3476 10.4044 25.3562C9.3475 28.8067 9.53501 32.3112 13.1005 36.5259C14.8663 38.6084 17.848 40.6127 22.2615 43.5859C30.8103 49.3447 31.8274 59.699 31.3785 63.381C31.2081 65.0672 30.9211 66.8329 29.6654 66.0331Z" fill="#80BC00"/>
<path d="M15.5159 4.80135C15.8781 6.27586 16.8967 8.39103 19.6425 10.0744C23.9766 12.7407 25.8204 14.701 26.508 15.4042C31.5793 20.6005 30.9954 25.3621 29.6587 30.4803C29.1644 31.6607 29.7525 32.9037 31.1375 30.7445C32.6887 28.3324 33.5751 27.0398 34.2541 24.1518C35.088 20.5593 35.3849 15.7267 29.4655 10.9409C28.2183 9.92947 26.9157 9.07289 23.7138 7.95493C23.1157 7.74895 19.7917 6.59974 16.9279 4.41071C15.9534 3.66635 15.2446 3.72885 15.5159 4.80135Z" fill="#006548"/>
<path d="M29.3108 3.35706C29.5509 3.84289 29.4983 4.46366 29.3321 5.01482C29.0906 5.80748 28.7341 6.42399 27.9158 6.64275C27.4485 6.76776 26.805 6.7777 26.2979 6.63423C24.8901 6.24358 24.2551 5.00204 24.6316 3.74203C25.0009 2.48202 26.2538 1.68226 27.6587 2.06154C28.4571 2.28598 29.0011 2.7093 29.3108 3.35706Z" fill="#006548"/>
<path d="M12.5759 50.9221C6.5898 57.34 5.64941 64.4739 6.56565 71.1732C6.77021 72.7272 6.93073 74.2571 6.95204 75.0413C6.97051 75.9831 5.91363 76.395 5.2403 75.4191C2.86375 71.9701 1.32247 67.9315 1.03126 65.7226C0.203089 59.3927 1.50004 52.3994 7.52593 46.2258C9.44223 44.2683 10.9565 43.1589 13.6598 41.5366C15.4553 40.4584 22.433 38.0407 24.6959 37.079C28.172 35.6116 30.8923 33.5788 32.2546 31.9921C33.1566 30.9409 33.8541 31.1767 33.2475 32.7506C31.9761 36.0903 28.7672 40.136 24.2598 43.0864C20.1545 45.7542 14.2422 49.1379 12.5759 50.9221Z" fill="#006548"/>
<path d="M15.8762 31.5515C15.5822 32.1936 15.5026 33.0686 15.7072 33.786C16.0055 34.8258 16.6064 35.5645 17.6178 35.8529C18.2116 36.0191 19.0057 36.0234 19.6506 35.8401C21.4064 35.3415 22.2019 33.7221 21.7274 32.0672C21.2601 30.4194 19.6989 29.3753 17.9474 29.8796C16.9416 30.1566 16.2655 30.7091 15.8762 31.5515Z" fill="#006548"/>
<path d="M12.7105 26.9478C17.7477 17.8053 35.3253 17.7783 35.8907 3.87126C35.9319 2.87262 35.9518 1.77597 35.6293 0.660857C35.4589 0.0329824 34.787 -0.494035 34.5767 0.784443C34.0824 3.7221 31.9374 9.30195 22.7423 13.7511C14.9535 17.5169 12.0982 22.6706 11.486 26.1267C11.1024 28.3044 12.2474 27.7902 12.7105 26.9478Z" fill="#80BC00"/>
<path d="M90.9763 55.5784C90.901 55.6863 90.678 55.6778 90.678 55.6778H85.8382C85.8382 55.6778 85.6237 55.6608 85.5356 55.5628C85.4476 55.4647 85.5143 55.2602 85.5143 55.2602L86.5513 52.0583L88.1352 47.372C88.1352 47.372 88.192 47.2384 88.2744 47.2384C88.3739 47.2384 88.4094 47.372 88.4094 47.372L90.9734 55.2716C90.9763 55.2716 91.0558 55.469 90.9763 55.5784ZM100.024 64.7167L91.482 42.0194C91.08 41.177 90.982 40.8105 89.6992 40.8105H86.7985C85.5157 40.8105 85.4163 41.177 85.0157 42.0194L76.4741 64.7167C76.1757 65.5235 75.9698 65.9113 76.9499 65.9113H80.5993C81.9332 65.9199 81.9275 65.9838 82.2627 65.167L83.6847 61.0204C83.6847 61.0204 83.7216 60.8727 83.8594 60.7932C83.956 60.7292 84.1577 60.7292 84.1577 60.7292H92.3414C92.3414 60.7292 92.5431 60.7292 92.6397 60.7932C92.7775 60.8727 92.8144 61.0204 92.8144 61.0204L94.2364 65.167C94.5745 65.9838 94.5631 65.9199 95.8998 65.9113H99.5506C100.528 65.9113 100.319 65.5235 100.024 64.7167Z" fill="#231F20"/>
<path d="M54.8623 78.4414V103.548H52.0767V78.4414H54.8623Z" fill="#80BC00"/>
<path d="M60.8418 87.9292H63.5522V89.7361C64.0423 89.0969 65.4344 87.5527 68.0311 87.5527C69.875 87.5527 71.5696 88.3056 72.51 89.6977C73.2999 90.864 73.4135 92.1439 73.4135 93.8755V103.549H70.7031V93.9508C70.7031 93.0104 70.6278 91.918 69.9886 91.0899C69.4616 90.4123 68.6334 89.9605 67.4288 89.9605C66.4884 89.9605 65.4713 90.2248 64.6815 91.1651C63.6275 92.4067 63.5522 94.252 63.5522 95.3813V103.549H60.8418V87.9292Z" fill="#80BC00"/>
<path d="M81.5049 90.4124V103.548H78.7945V90.4124H77.1382V87.9279H78.7945V82.2812H81.5049V87.9279H84.2153V90.4124H81.5049Z" fill="#80BC00"/>
<path d="M100.819 99.5585C100.367 100.424 99.6898 101.365 98.9 102.08C97.4695 103.36 95.7009 103.999 93.7051 103.999C89.9407 103.999 85.9888 101.628 85.9888 95.831C85.9888 91.1632 88.8497 87.5508 93.5545 87.5508C96.603 87.5508 98.5235 89.0565 99.4639 90.4117C100.443 91.8039 101.007 94.2131 100.931 96.2842H88.773C88.8099 99.5216 91.0317 101.591 93.742 101.591C95.0219 101.591 96.0376 101.215 96.9411 100.462C97.6556 99.8597 98.221 99.0699 98.5591 98.317L100.819 99.5585ZM98.1471 94.0256C97.6954 91.5794 95.8515 89.96 93.5545 89.96C91.2589 89.96 89.3767 91.6916 88.9619 94.0256H98.1471Z" fill="#80BC00"/>
<path d="M105.258 87.9292H107.969V89.6224C108.233 89.2091 109.399 87.5527 111.507 87.5527C112.335 87.5527 113.239 87.8539 113.916 88.192L112.637 90.6381C112.034 90.2247 111.47 90.1111 111.055 90.1111C109.965 90.1111 109.287 90.5628 108.872 91.0899C108.42 91.6922 107.969 92.7462 107.969 95.306V103.549H105.258V87.9292Z" fill="#80BC00"/>
<path d="M116.585 87.9292H119.295V89.7361C119.785 89.0969 121.178 87.5527 123.774 87.5527C125.618 87.5527 127.313 88.3056 128.253 89.6977C129.043 90.864 129.157 92.1439 129.157 93.8755V103.549H126.446V93.9508C126.446 93.0104 126.371 91.918 125.732 91.0899C125.205 90.4123 124.377 89.9605 123.172 89.9605C122.232 89.9605 121.214 90.2248 120.425 91.1651C119.371 92.4067 119.295 94.252 119.295 95.3813V103.549H116.585V87.9292Z" fill="#80BC00"/>
<path d="M146.433 87.9292H149.143V103.549H146.433V101.366C145.53 102.532 143.836 104.001 141.088 104.001C137.136 104.001 133.485 101.215 133.485 95.7208C133.485 90.3384 137.099 87.5527 141.088 87.5527C144.099 87.5527 145.717 89.2091 146.433 90.1495V87.9292ZM136.271 95.7194C136.271 99.069 138.153 101.592 141.39 101.592C144.703 101.592 146.585 98.8445 146.585 95.7577C146.585 91.7305 143.799 89.9605 141.39 89.9605C138.718 89.9605 136.271 91.918 136.271 95.7194Z" fill="#80BC00"/>
<path d="M157.234 90.4124V103.548H154.524V90.4124H152.867V87.9279H154.524V82.2812H157.234V87.9279H159.944V90.4124H157.234Z" fill="#80BC00"/>
<path d="M164.049 80.0996C165.103 80.0996 165.968 80.9647 165.968 82.0187C165.968 83.0728 165.101 83.9379 164.049 83.9379C162.995 83.9379 162.129 83.0714 162.129 82.0187C162.128 80.9661 162.995 80.0996 164.049 80.0996ZM165.404 87.9296V103.55H162.693V87.9296H165.404Z" fill="#80BC00"/>
<path d="M169.73 95.7941C169.73 91.051 173.231 87.5508 178.011 87.5508C182.791 87.5508 186.291 91.051 186.291 95.7941C186.291 100.537 182.752 103.999 178.011 103.999C173.269 103.999 169.73 100.537 169.73 95.7941ZM172.516 95.7941C172.516 99.6338 175.226 101.591 178.012 101.591C180.835 101.591 183.508 99.5969 183.508 95.7941C183.508 91.9544 180.873 89.96 178.012 89.96C175.151 89.96 172.516 91.9928 172.516 95.7941Z" fill="#80BC00"/>
<path d="M190.621 87.9292H193.331V89.7361C193.82 89.0969 195.214 87.5527 197.81 87.5527C199.654 87.5527 201.349 88.3056 202.289 89.6977C203.079 90.864 203.193 92.1439 203.193 93.8755V103.549H200.482V93.9508C200.482 93.0104 200.407 91.918 199.768 91.0899C199.241 90.4123 198.413 89.9605 197.208 89.9605C196.268 89.9605 195.251 90.2248 194.461 91.1651C193.407 92.4067 193.331 94.252 193.331 95.3813V103.549H190.621V87.9292Z" fill="#80BC00"/>
<path d="M220.464 87.9292H223.174V103.549H220.464V101.366C219.56 102.532 217.867 104.001 215.118 104.001C211.166 104.001 207.516 101.215 207.516 95.7208C207.516 90.3384 211.129 87.5527 215.118 87.5527C218.13 87.5527 219.748 89.2091 220.464 90.1495V87.9292ZM210.301 95.7194C210.301 99.069 212.183 101.592 215.421 101.592C218.734 101.592 220.616 98.8445 220.616 95.7577C220.616 91.7305 217.83 89.9605 215.421 89.9605C212.747 89.9605 210.301 91.918 210.301 95.7194Z" fill="#80BC00"/>
<path d="M231.194 76.1094V103.548H228.484V76.1094H231.194Z" fill="#80BC00"/>
</svg>
